# xmcd
#
# Track frame offsets:
#	151
#	24314
#	37495
#	59265
#	76691
#	89654
#	105635
#	116926
#	141849
#	153204
#	174950
#	188499
#	201933
#	211008
#	238076
#	254010
#	273929
#	305377
#	315198
#	329633
#	347827
#
# Disc length: 4661 seconds
#
# Revision: 0
# Processed by: cddbd v1.4PL0 Copyright (c) Steve Scherf et al.
# Submitted via: EasyCDDAExtractor 4.6.9.1
#
DISCID=29123315
DTITLE=Music Maker Relief Foundation - Songs from the Roots of America Vol 2
DYEAR=2002
DGENRE=Blues
TTITLE0=1941 Blues, Guitar Gabriel
TTITLE1=My Creole Belle, Taj Mahal
TTITLE2=Great Day, Mother Pauline and Elder James Goins
TTITLE3=Peachtree Blues, Rufus McKenzie
TTITLE4=Looking for my Woman, J.W. Warren
TTITLE5=My Load and I, Elder Anderson Johnson
TTITLE6=Keep on Grumblin', Jack Owens
TTITLE7=We Three, Mr. Q
TTITLE8=Big Boss Man, Robert Thomas
TTITLE9=I wish I could hear my mother pray again, Cora Fluker
TTITLE10=Walked all night long, Pernell King and Guitar Gabriel
TTITLE11=My Baby's Gone, Mr. Frank Edwards
TTITLE12=Flossie, Carl Hodges
TTITLE13=Have you ever loved someone?, Ernie Williams and Cool John Ferguson
TTITLE14=Banks of the Ohio, Preston Fulp
TTITLE15=Savannah Mama, Mudcat
TTITLE16=Georgia Drumbeat, James Davis
TTITLE17=Canonball Blues, Jahue Rorie
TTITLE18=He's in the Jailhouse Now, Little Pink Anderson
TTITLE19=Widow Woman, Drink Small
TTITLE20=Clickin', Haskell "Whistlin' Britches" Thompson
EXTD=
EXTT0=
EXTT1=
EXTT2=
EXTT3=
EXTT4=
EXTT5=
EXTT6=
EXTT7=
EXTT8=
EXTT9=
EXTT10=
EXTT11=
EXTT12=
EXTT13=
EXTT14=
EXTT15=
EXTT16=
EXTT17=
EXTT18=
EXTT19=
EXTT20=
PLAYORDER=
